<svg width="174" height="167" viewBox="0 0 174 167" fill="none" xmlns="http://www.w3.org/2000/svg">
<g filter="url(#filter0_d_89_926)">
<rect x="4" width="165.641" height="158.077" rx="26" fill="#70D1BE"/>
<path d="M138.198 60.661C136.903 57.0992 134.672 54.5237 131.746 53.2143C130.403 52.6146 128.988 52.3107 127.542 52.3107C121.372 52.3107 115.015 57.9789 111.723 66.4163C107.648 76.8678 109.763 87.1053 116.644 90.2292C118.027 90.8581 119.514 91.1775 121.064 91.1775C127.348 91.1775 133.816 85.9794 137.158 78.2433C139.683 72.3881 140.072 65.816 138.198 60.661ZM48.7509 66.4163C45.7209 57.9789 39.5398 52.3107 33.3699 52.3107C31.9239 52.3107 30.4997 52.6146 29.1381 53.2143C26.1706 54.5237 23.8601 57.0992 22.4543 60.661C20.4204 65.816 20.6048 72.3881 22.9481 78.2433C26.0492 85.9794 32.3556 91.1775 38.6398 91.1775C40.189 91.1775 41.6862 90.8581 43.0895 90.2292C50.0669 87.1053 52.5009 76.8678 48.7509 66.4163ZM62.4912 65.2463C63.0624 65.2709 63.6394 65.2554 64.206 65.2005C67.5346 64.8789 70.5657 63.1982 72.9724 60.3397C76.8558 55.727 78.0264 48.5054 77.3393 41.0767C76.2904 29.6283 70.3019 21.0839 62.0829 20.7314C62.0829 20.7314 60.9087 20.7338 60.3104 20.79C56.6766 21.1434 53.3493 23.0015 50.6886 26.163C46.8303 30.7484 44.9043 37.5711 45.5358 44.4134C46.5726 55.7325 54.0204 64.8829 62.4912 65.2463ZM80.116 74.1733C60.3969 74.1733 40.3186 97.2729 39.9737 119.456C39.8708 126.074 43.1564 131.398 46.43 133.58C50.4731 136.274 53.3357 137.332 59.3238 137.332C66.4391 137.332 68.3974 134.879 71.762 132.715C74.1955 131.15 76.2972 129.798 79.2516 129.798C82.2061 129.798 84.2658 131.15 86.6503 132.715C89.9477 134.879 91.8294 137.332 98.9449 137.332C104.933 137.332 107.828 136.274 111.955 133.58C115.297 131.398 118.748 126.074 118.851 119.456C119.195 97.2729 99.8352 74.1733 80.116 74.1733ZM96.3648 65.1443C96.9297 65.1996 97.5065 65.2148 98.0781 65.1902C106.56 64.827 114.293 55.6763 115.681 44.3579C116.526 37.5155 114.811 30.6925 111.096 26.1075C108.533 22.9459 105.385 21.1799 101.762 20.8264C101.165 20.77 99.8695 20.7317 99.8695 20.7317C91.6396 21.0842 85.3861 29.5724 83.9815 41.0205C83.0637 48.4495 84.0095 55.6708 87.7492 60.2835C90.0673 63.1421 93.0462 64.8228 96.3648 65.1443Z" fill="#543B8A" fill-opacity="0.4"/>
<path d="M145.943 55.4777C144.651 51.9159 142.422 49.3404 139.497 48.0311C138.154 47.4314 136.74 47.1275 135.294 47.1275C129.124 47.1275 122.762 52.7956 119.463 61.2329C115.381 71.6843 117.488 81.9217 124.366 85.0456C125.749 85.6744 127.236 85.9938 128.786 85.9938C135.07 85.9938 141.542 80.7958 144.889 73.0598C147.419 67.2047 147.813 60.6326 145.943 55.4777ZM56.4918 61.2329C53.4682 52.7956 47.2915 47.1275 41.1216 47.1275C39.6756 47.1275 38.2512 47.4314 36.8891 48.0311C33.9206 49.3404 31.6081 51.9159 30.1995 55.4777C28.1617 60.6326 28.341 67.2047 30.6799 73.0598C33.775 80.7958 40.0773 85.9938 46.3616 85.9938C47.9108 85.9938 49.4082 85.6744 50.8121 85.0456C57.7918 81.9217 60.2337 71.6843 56.4918 61.2329ZM70.233 60.063C70.8041 60.0876 71.3811 60.0721 71.9477 60.0171C75.2766 59.6956 78.309 58.0149 80.718 55.1564C84.6049 50.5438 85.7811 43.3222 85.0996 35.8936C84.0595 24.4453 78.0777 15.9011 69.859 15.5486C69.859 15.5486 68.6847 15.551 68.0864 15.6072C64.4523 15.9606 61.1236 17.8186 58.4605 20.9801C54.5986 25.5654 52.6673 32.388 53.2936 39.2303C54.3217 50.5492 61.7624 59.6995 70.233 60.063ZM87.8509 68.9898C68.1317 68.9898 48.0357 92.0892 47.6737 114.272C47.5658 120.89 50.8472 126.214 54.1192 128.396C58.1602 131.09 61.0219 132.148 67.0101 132.148C74.1253 132.148 76.0855 129.695 79.4518 127.531C81.8865 125.966 83.9892 124.614 86.9437 124.614C89.8982 124.614 91.9568 125.966 94.3401 127.531C97.6358 129.695 99.5157 132.148 106.631 132.148C112.619 132.148 115.515 131.09 119.644 128.396C122.987 126.214 126.443 120.89 126.551 114.272C126.912 92.0892 107.57 68.9898 87.8509 68.9898ZM104.107 59.961C104.671 60.0162 105.248 60.0314 105.82 60.0068C114.302 59.6437 122.042 50.4931 123.439 39.1747C124.289 32.3324 122.579 25.5096 118.867 20.9246C116.307 17.763 113.161 15.997 109.538 15.6436C108.941 15.5871 107.646 15.5489 107.646 15.5489C99.4154 15.9014 93.1553 24.3894 91.7419 35.8374C90.8184 43.2663 91.7586 50.4876 95.4947 55.1002C97.8107 57.9587 100.788 59.6394 104.107 59.961Z" fill="#FEFEFE" fill-opacity="0.4"/>
</g>
<defs>
<filter id="filter0_d_89_926" x="0" y="0" width="173.641" height="166.077" filterUnits="userSpaceOnUse" color-interpolation-filters="sRGB">
<feFlood flood-opacity="0" result="BackgroundImageFix"/>
<feColorMatrix in="SourceAlpha" type="matrix" values="0 0 0 0 0 0 0 0 0 0 0 0 0 0 0 0 0 0 127 0" result="hardAlpha"/>
<feOffset dy="4"/>
<feGaussianBlur stdDeviation="2"/>
<feComposite in2="hardAlpha" operator="out"/>
<feColorMatrix type="matrix" values="0 0 0 0 0 0 0 0 0 0 0 0 0 0 0 0 0 0 0.25 0"/>
<feBlend mode="normal" in2="BackgroundImageFix" result="effect1_dropShadow_89_926"/>
<feBlend mode="normal" in="SourceGraphic" in2="effect1_dropShadow_89_926" result="shape"/>
</filter>
</defs>
</svg>
